<svg xmlns="http://www.w3.org/2000/svg" version="1.1" xmlns:xlink="http://www.w3.org/1999/xlink" width="512" height="512" x="0" y="0" viewBox="0 0 478.665 520.493" style="enable-background:new 0 0 512 512" xml:space="preserve" class=""><g><path d="M336.724 118.043V0H141.941v126.557h194.783zM334.671 11.05v104.941h-190.68V11.05z" fill="#000000" opacity="1" data-original="#000000" class=""></path><ellipse cx="144.226" cy="152.412" rx="16.536" ry="16.534" transform="rotate(-4.82 143.513 151.714)" fill="#000000" opacity="1" data-original="#000000" class=""></ellipse><path d="M140.516 205.452c-6.597-7.832-9.678-15.332-10.463-17.443l-.008-.018-.026-.082a7.294 7.294 0 0 1 .294-5.619 7.298 7.298 0 0 1 4.182-3.762 7.362 7.362 0 0 1 2.451-.422 7.373 7.373 0 0 1 6.934 4.898l.05.137.034.086c.061.156.15.375.264.646.273.637.729 1.656 1.392 2.922a50.468 50.468 0 0 0 5.729 8.674c-.074-1.975-.099-3.954-.019-5.936.258-8.051-4.336-16.297-12.172-18.506-7.781-2.228-16.731 5.469-17.208 17.322a105.96 105.96 0 0 0 7.437 43.469c1.729 4.338 4.48 7.626 7.582 9.74l12.161-27.794a56.637 56.637 0 0 1-8.614-8.312zM107.978 209.355l12.543 44.797a41.328 41.328 0 0 0 9.346 3.638l3.023-6.91h-5.652l-13.066-46.665a21.654 21.654 0 0 1-6.194 5.14z" fill="#000000" opacity="1" data-original="#000000" class=""></path><ellipse cx="97.559" cy="190.471" rx="19.814" ry="19.812" transform="rotate(-4.82 97.052 189.57)" fill="#000000" opacity="1" data-original="#000000" class=""></ellipse><path d="M71.492 252.123a126.93 126.93 0 0 0 8.287 33.495c2.962 7.438 8.436 12.313 14.065 14.15 1.321.563 2.776.873 4.302.873h12.972l9.634-22.02h-6.756a24.819 24.819 0 0 0-1.488-6.047 94.553 94.553 0 0 1-1.27-3.401c-7.89-4.404-13.857-10.06-18.124-15.149-7.904-9.385-11.596-18.371-12.538-20.902l-.008-.02-.033-.1a8.742 8.742 0 0 1 .353-6.73 8.748 8.748 0 0 1 5.011-4.51 8.836 8.836 0 0 1 2.937-.506 8.83 8.83 0 0 1 8.308 5.871l.06.164.042.104c.072.186.178.447.316.775.325.762.872 1.982 1.666 3.5a60.672 60.672 0 0 0 6.832 10.354 91.639 91.639 0 0 1 .01-7.072c.31-9.646-5.195-19.527-14.583-22.174-6.933-1.986-14.635 2.606-18.366 10.926a24.22 24.22 0 0 1 3.729 11.008c.546 6.527-1.537 12.676-5.358 17.411zM77.168 308.335l-13.893-49.617a24.366 24.366 0 0 1-8.469 2.414l1.469 5.248c5.052 5.222 8.08 12.818 7.821 20.945a103.959 103.959 0 0 0-.043 6.836l1.356 4.845c3.671 3.8 7.577 6.915 11.759 9.329zM77.392 308.456c6.65 3.792 13.984 5.868 22.123 6.271a9.926 9.926 0 0 1 4.785 1.495l3.397-7.766z" fill="#000000" opacity="1" data-original="#000000" class=""></path><ellipse cx="52.438" cy="236.76" rx="22.496" ry="22.494" transform="rotate(-4.82 52.16 235.682)" fill="#000000" opacity="1" data-original="#000000" class=""></ellipse><path d="M71.097 336.843a28.115 28.115 0 0 0-1.689-6.865 103.626 103.626 0 0 1-1.441-3.862c-8.957-5.001-15.733-11.421-20.576-17.2-8.975-10.654-13.166-20.857-14.234-23.73l-.01-.023-.037-.111a9.928 9.928 0 0 1 .4-7.643 9.922 9.922 0 0 1 5.69-5.119 9.978 9.978 0 0 1 3.334-.574c4.229 0 8.018 2.678 9.432 6.666l.066.184.047.117c.084.213.203.51.361.881.369.865.99 2.252 1.891 3.975a68.937 68.937 0 0 0 7.758 11.758c-.099-2.673-.097-5.352.012-8.033.35-10.951-5.898-22.17-16.559-25.174-10.586-3.033-22.762 7.438-23.41 23.564a144.116 144.116 0 0 0 10.119 59.135c3.363 8.443 9.58 13.98 15.971 16.066 1.5.637 3.15.99 4.885.99h31.234l10.938-25H71.097z" fill="#000000" opacity="1" data-original="#000000" class=""></path><path d="m79.001 370.718-49.209-.004-19.978-71.346a5 5 0 1 0-9.627 2.697v-.004l21 75.002a4.987 4.987 0 0 0 4.814 3.652h50.08l4.282-9.787a5.015 5.015 0 0 0-1.362-.21zM475.013 295.901a5 5 0 0 0-6.162 3.467l-19.978 71.346-49.209.004c-.476 0-.926.088-1.362.211l4.282 9.787h50.08a4.987 4.987 0 0 0 4.814-3.652l21-75.002v.004a5 5 0 0 0-3.465-6.165z" fill="#000000" opacity="1" data-original="#000000" class=""></path><ellipse cx="334.439" cy="152.412" rx="16.534" ry="16.536" transform="rotate(-85.18 334.363 152.297)" fill="#000000" opacity="1" data-original="#000000" class=""></ellipse><path d="M327.318 195.47a50.452 50.452 0 0 0 5.728-8.674 41.581 41.581 0 0 0 1.392-2.922c.114-.271.203-.49.264-.646l.034-.086.05-.137a7.37 7.37 0 0 1 6.934-4.898c.835 0 1.658.143 2.451.422a7.291 7.291 0 0 1 4.182 3.762c.847 1.773.95 3.77.294 5.619l-.026.082-.008.018c-.785 2.111-3.866 9.611-10.463 17.443a56.729 56.729 0 0 1-8.613 8.314l12.161 27.794c3.103-2.114 5.854-5.402 7.582-9.74a105.961 105.961 0 0 0 7.438-43.469c-.477-11.854-9.427-19.551-17.208-17.322-7.836 2.209-12.43 10.455-12.172 18.506.079 1.98.054 3.959-.02 5.934zM358.144 254.152l12.543-44.797a21.637 21.637 0 0 1-6.193-5.141l-13.066 46.665h-5.652l3.023 6.91a41.288 41.288 0 0 0 9.345-3.637z" fill="#000000" opacity="1" data-original="#000000" class=""></path><ellipse cx="381.106" cy="190.471" rx="19.812" ry="19.814" transform="rotate(-85.18 381.013 190.338)" fill="#000000" opacity="1" data-original="#000000" class=""></ellipse><path d="M372.597 234.952c.095 2.36.097 4.72.01 7.072a60.594 60.594 0 0 0 6.832-10.354 49.355 49.355 0 0 0 1.666-3.5c.139-.328.244-.59.316-.775l.042-.104.06-.164a8.83 8.83 0 0 1 8.308-5.871 8.83 8.83 0 0 1 2.936.506 8.748 8.748 0 0 1 5.011 4.51 8.742 8.742 0 0 1 .353 6.73l-.033.1-.008.02c-.942 2.531-4.634 11.518-12.538 20.902-4.267 5.09-10.234 10.745-18.124 15.149a90.237 90.237 0 0 1-1.27 3.401 24.796 24.796 0 0 0-1.488 6.047h-6.756l9.634 22.02h12.972c1.525 0 2.98-.311 4.302-.873 5.629-1.838 11.103-6.713 14.065-14.15a126.852 126.852 0 0 0 8.287-33.495c-3.821-4.735-5.904-10.884-5.355-17.411a24.235 24.235 0 0 1 3.728-11.008c-3.732-8.32-11.434-12.912-18.366-10.926-9.389 2.647-14.893 12.528-14.584 22.174zM401.497 308.335c4.183-2.414 8.089-5.529 11.758-9.329l1.356-4.845c.058-2.27.049-4.548-.043-6.836-.259-8.127 2.77-15.724 7.821-20.945l1.47-5.248a24.36 24.36 0 0 1-8.47-2.414zM379.15 314.727c8.139-.403 15.473-2.479 22.123-6.271l-30.306.001 3.397 7.766a9.924 9.924 0 0 1 4.786-1.496z" fill="#000000" opacity="1" data-original="#000000" class=""></path><ellipse cx="426.228" cy="236.76" rx="22.494" ry="22.496" transform="rotate(-85.18 426.122 236.605)" fill="#000000" opacity="1" data-original="#000000" class=""></ellipse><path d="M416.566 287.261c.107 2.681.11 5.36.012 8.033a68.937 68.937 0 0 0 7.758-11.758 56.338 56.338 0 0 0 1.891-3.975c.158-.371.277-.668.361-.881l.047-.117.066-.184a10.024 10.024 0 0 1 9.432-6.666c1.135 0 2.256.193 3.334.574a9.923 9.923 0 0 1 5.689 5.119 9.928 9.928 0 0 1 .4 7.643l-.037.111-.01.023c-1.068 2.873-5.26 13.076-14.234 23.73-4.844 5.779-11.619 12.199-20.576 17.2a103.626 103.626 0 0 1-1.441 3.862 28.126 28.126 0 0 0-1.689 6.865h-24.181l10.938 25h31.234c1.734 0 3.385-.354 4.885-.99 6.391-2.086 12.607-7.623 15.971-16.066a144.116 144.116 0 0 0 10.119-59.135c-.648-16.127-12.824-26.598-23.41-23.564-10.661 3.006-16.909 14.224-16.559 25.176zM374.09 333.042a9.981 9.981 0 0 1-4.448-7.85 9.92 9.92 0 0 1 .199-2.454l-19.479-47.224a63.764 63.764 0 0 1-9.902 1.225 8.94 8.94 0 0 1-.401.008h-.003a8.791 8.791 0 0 1-8.789-8.387c-.23-4.85 3.526-8.984 8.374-9.217 1.3-.064 2.571-.19 3.825-.352l-17.514-42.462c-5.879 3.822-13.229 6.885-22.22 7.832h1.068l3.96 10.685h-36.526l-6.101-20.021h5.652l2.844 9.337h23.657a7.314 7.314 0 0 1-3.396-2.002h-18.78l-6.101-20.022h35.21l2.382 6.427c4.568-1.182 8.747-3.243 12.597-6.186l-16.451-39.885h-128.83l-16.451 39.885c5.934 4.538 12.658 6.965 20.366 7.348 3.142.15 5.726 2.267 6.639 5.101h27.057l-6.099 20.021h-36.528l4.008-10.816c-8.521-1.066-15.544-4.026-21.196-7.701l-17.514 42.462a49.29 49.29 0 0 0 3.825.352c4.848.233 8.604 4.367 8.374 9.217a8.792 8.792 0 0 1-8.789 8.387h-.003a8.94 8.94 0 0 1-.401-.008 63.764 63.764 0 0 1-9.902-1.225l-19.478 47.224a9.92 9.92 0 0 1 .199 2.454 9.985 9.985 0 0 1-4.448 7.85l-35.657 86.451h340.83zm-74.488 5.649-10.301-33.811h58.534l12.532 33.811zm-8.533-21.143 7.052 23.146h48.96l3.954 10.666H290.27l-10.301-33.813h11.1zm62.843 35.813-4.695-12.667h8.176l9.288 25.061h-60.766l-3.775-12.394zm-33.261-95.477 9.863 26.606-9.252.001-7.886-21.276h-37.45l-1.624-5.331zm-8.665 7.33 9.861 26.611h-48.104l-8.105-26.611zM119.42 353.36h14.499l-4.594 12.395h-22.677l12.531-33.813h8.179zm21.349-18.479-6.108 16.479h-12.368l12.534-33.813h58.535l-5.281 17.334zm49.625 35.811h-60.767l12.534-33.813h58.532zm-22.869-107.266-12.253 21.066h-7.124l9.862-26.61h46.351l-3.453 11.336zm34.158 34.966-47.396-8.229 14.268-24.531 45.667 7.927zm-13.746-85.568 2.717-7.332h35.207l-6.099 20.023h-8.4l3.866-12.691z" fill="#000000" opacity="1" data-original="#000000" class=""></path><path d="M105.228 243.794c-3.485-4.119-5.981-8.256-7.566-11.309a51.97 51.97 0 0 1-1.72-3.621c-.18-.42-.304-.738-.382-.936l-.077-.201-.002-.01a7.05 7.05 0 0 0-8.995-4.293 7.042 7.042 0 0 0-4.291 8.992l-.002-.002c.189.492 3.624 10.213 12.271 20.477 8.566 10.223 22.94 21.127 43.802 22.088a7.047 7.047 0 0 0 .67-14.076c-16.133-.8-26.641-8.834-33.708-17.109zM150.627 196.913a51.66 51.66 0 0 1-6.314-9.438 42.793 42.793 0 0 1-1.435-3.021 26.708 26.708 0 0 1-.318-.781l-.065-.168-.002-.008a5.882 5.882 0 0 0-7.507-3.582 5.877 5.877 0 0 0-3.581 7.504h-.001c.157.408 3.023 8.523 10.241 17.088 7.149 8.533 19.146 17.633 36.556 18.434a5.878 5.878 0 0 0 6.153-5.594 5.882 5.882 0 0 0-5.594-6.154c-13.466-.669-22.235-7.374-28.133-14.28zM384.201 252.892c8.647-10.264 12.082-19.984 12.272-20.477l-.002.002a7.042 7.042 0 0 0-4.291-8.992 7.05 7.05 0 0 0-8.995 4.293l-.002.01-.077.201c-.078.197-.202.516-.382.936a51.507 51.507 0 0 1-1.72 3.621c-1.585 3.053-4.081 7.19-7.566 11.309-7.067 8.275-17.575 16.309-33.708 17.109a7.047 7.047 0 0 0 .331 14.084c.111 0 .225-.004.339-.008 20.86-.962 35.234-11.866 43.801-22.088zM299.906 211.192a5.882 5.882 0 0 0-5.594 6.154 5.88 5.88 0 0 0 6.153 5.594c17.41-.801 29.406-9.9 36.556-18.434 7.218-8.564 10.084-16.68 10.241-17.088h-.001a5.877 5.877 0 0 0-3.581-7.504 5.882 5.882 0 0 0-7.507 3.582l-.002.008c-.013.029-.033.088-.065.168-.064.166-.169.43-.318.781a42.896 42.896 0 0 1-1.436 3.021 51.66 51.66 0 0 1-6.314 9.438c-5.898 6.907-14.667 13.612-28.132 14.28zM68.917 424.493h340.83v35H68.917zM99.416 316.726c-18.316-.91-30.248-10.031-38.272-19.426-3.957-4.676-6.791-9.373-8.59-12.84a58.048 58.048 0 0 1-1.953-4.111 35.527 35.527 0 0 1-.434-1.063c-.043-.109-.072-.188-.088-.229l-.002-.01a8.003 8.003 0 0 0-10.213-4.873 7.994 7.994 0 0 0-4.871 10.209l-.002-.002c.215.559 4.113 11.596 13.932 23.246 9.727 11.607 26.045 23.988 49.73 25.078a8 8 0 0 0 8.371-7.609 7.997 7.997 0 0 0-7.608-8.37zM379.626 332.716c.127 0 .256-.004.385-.01 23.685-1.09 40.004-13.471 49.73-25.078 9.818-11.65 13.717-22.688 13.932-23.246l-.002.002a7.994 7.994 0 0 0-4.871-10.209 8.003 8.003 0 0 0-10.213 4.873l-.002.01-.088.229c-.088.227-.231.586-.434 1.063a58.048 58.048 0 0 1-1.953 4.111c-1.799 3.467-4.633 8.164-8.59 12.84-8.023 9.394-19.955 18.516-38.271 19.426a8 8 0 0 0 .377 15.989zM94.333 465.493h32v55h-32zM352.333 465.493h32v55h-32z" fill="#000000" opacity="1" data-original="#000000" class=""></path></g></svg>