<svg xmlns="http://www.w3.org/2000/svg" version="1.1" xmlns:xlink="http://www.w3.org/1999/xlink" width="512" height="512" x="0" y="0" viewBox="0 0 512 512" style="enable-background:new 0 0 512 512" xml:space="preserve" class=""><g><path d="M309.928 357.6a4.843 4.843 0 0 1-4.562-3.227L291.71 315.74a4.839 4.839 0 0 1 2.948-6.175 4.833 4.833 0 0 1 6.175 2.948l13.656 38.633a4.839 4.839 0 0 1-4.561 6.454zM198.166 205.874c-1.89 1.89-1.89 4.951 0 6.841s4.951 1.89 6.841 0c25.268-25.268 66.327-25.275 91.599-.002 1.89 1.89 4.951 1.89 6.841 0s1.89-4.951 0-6.841c-29.045-29.052-76.229-29.055-105.281.002z" fill="#000000" opacity="1" data-original="#000000" class=""></path><path d="M218.014 225.721c-1.89 1.89-1.89 4.951 0 6.841s4.951 1.89 6.841 0c14.315-14.311 37.596-14.308 51.906-.002 1.89 1.89 4.951 1.89 6.841 0s1.89-4.951 0-6.841c-18.078-18.076-47.505-18.083-65.588.002zM237.862 245.567c-1.89 1.89-1.89 4.951 0 6.841s4.951 1.89 6.841 0c3.281-3.281 8.934-3.276 12.211 0 1.89 1.89 4.951 1.89 6.841 0s1.89-4.951 0-6.841c-7.141-7.141-18.757-7.139-25.893 0z" fill="#000000" opacity="1" data-original="#000000" class=""></path><path d="m488.777 174.529-29.705-21.142V36.406c0-11.127-9.047-20.174-20.174-20.174h-53.604c-11.127 0-20.174 9.047-20.174 20.174V86.43l-89.84-64.006c-11.514-8.225-27.044-8.225-38.558 0L23.223 174.529c-14.949 10.692-18.433 31.398-7.789 46.347a33.058 33.058 0 0 0 37.494 12.24v252.975H29.851c-2.661 0-4.838 2.177-4.838 4.838s2.177 4.838 4.838 4.838h452.298c2.661 0 4.838-2.177 4.838-4.838s-2.177-4.838-4.838-4.838h-23.077V233.165c13.449 4.451 28.834-.145 37.494-12.289 10.644-14.948 7.16-35.655-7.789-46.347zM47.751 208.975a5.038 5.038 0 0 1-2.806.871c-1.5 0-3-.677-3.967-2.032-1.548-2.177-1.016-5.177 1.161-6.725l45.719-32.608c2.177-1.548 5.176-1.016 6.725 1.161 1.548 2.177 1.064 5.177-1.113 6.725zm88.583 277.117 28.931-65.602h181.519l28.883 65.602zm19.98-113.982h-12.772c-10.401 0-18.819-8.418-18.819-18.82v-31.543h50.411v31.543c0 10.402-8.466 18.82-18.82 18.82zm79.197 0-25.254-71.456c-.484-1.355-.29-2.854.581-4.016a4.261 4.261 0 0 1 3.58-1.887h88.438c4.257 0 8.031 2.709 9.482 6.676l24.964 70.682H235.511zm107.209-13.691h37.736c3.773 0 6.821 3.096 6.821 6.87a6.814 6.814 0 0 1-6.821 6.821h-32.898zm106.676 127.673h-63.135L357.33 420.49h45.283c9.337 0 16.933-7.596 16.933-16.933v-14.514c0-9.337-7.596-16.933-16.933-16.933h-7.209c.968-2.08 1.548-4.402 1.548-6.821 0-9.144-7.402-16.546-16.497-16.546h-41.171l-17.852-50.508c-2.758-7.838-10.208-13.159-18.577-13.159h-88.438c-4.548 0-8.854 2.226-11.514 5.951-2.612 3.725-3.29 8.563-1.742 12.821l24.093 68.263H177.65c4.402-5.031 7.16-11.611 7.16-18.82V316.91a4.821 4.821 0 0 0-4.838-4.838h-60.087a4.821 4.821 0 0 0-4.838 4.838v36.381c0 7.209 2.709 13.788 7.16 18.82h-12.821c-9.337 0-16.933 7.596-16.933 16.933v14.514c0 9.337 7.596 16.933 16.933 16.933h45.283l-28.883 65.602H62.604V228.085l193.42-137.833 193.372 137.833zm0-339.623-74.6-53.169V36.406a10.489 10.489 0 0 1 10.498-10.498h53.604a10.489 10.489 0 0 1 10.498 10.498z" fill="#000000" opacity="1" data-original="#000000" class=""></path><path d="M288.825 345.599c-2.516 3.532-6.725 5.515-11.563 5.515-9.095 0-18.723-7.064-21.916-16.062-1.79-5.032-1.306-10.015 1.306-13.74 2.516-3.532 6.725-5.563 11.563-5.563 9.095 0 18.771 7.063 21.916 16.062 1.791 5.031 1.307 10.062-1.306 13.788zM157.705 240.66c-8.048-3.619-17.443-3.338-24.525.739-8.065 4.637-12.61 13.94-11.055 22.626 1.713 9.548 10.992 16.654 20.264 15.645 6.815-.787 12.385-5.87 13.248-12.085 1.037-7.498-5.853-14.952-13.448-13.349a4.834 4.834 0 0 0-3.739 5.729c.548 2.615 3.123 4.297 5.729 3.739.676-.106 2.043 1.356 1.873 2.551-.248 1.791-2.433 3.532-4.769 3.801-4.259.506-8.818-3.206-9.631-7.739-.822-4.588 1.911-9.976 6.355-12.532 4.446-2.551 10.472-2.665 15.733-.3 4.961 2.23 9.338 6.579 12.324 12.241.924 1.75 3.747 7.774 1.313 11.748-3.558 5.81-16.008 5.101-23.004 12.959-5.085 5.705-5.057 15.361 1.434 19.458a4.837 4.837 0 1 0 5.164-8.182c-.787-.5-.875-3.156.628-4.84 4.913-5.521 17.945-4.41 24.027-14.339 3.496-5.707 3.13-13.477-1.002-21.315-3.992-7.564-9.999-13.441-16.919-16.555z" fill="#000000" opacity="1" data-original="#000000" class=""></path></g></svg>