<svg xmlns="http://www.w3.org/2000/svg" version="1.1" xmlns:xlink="http://www.w3.org/1999/xlink" width="512" height="512" x="0" y="0" viewBox="0 0 511 511" style="enable-background:new 0 0 512 512" xml:space="preserve" class=""><g><path d="M63.06 7.5H503.5V188M503.5 203v300.5H7.5V7.5h40.56" style="stroke-width:15;stroke-miterlimit:10;" fill="none" stroke="#000000" stroke-width="15" stroke-miterlimit="10" data-original="#000000" class=""></path><path d="M52.5 195.5h60v90h-60z" style="stroke-width:15;stroke-miterlimit:10;" transform="rotate(90 82.5 240.5)" fill="none" stroke="#000000" stroke-width="15" stroke-miterlimit="10" data-original="#000000" class=""></path><path d="M37.5 310.5h90M37.5 340.5h90M112.5 210.5v-30c0-16.569-13.431-30-30-30-16.569 0-30 13.431-30 30v30h60zM157.5 7.5v496M280.5 307.5h-123v-30h123M410.5 277.5h63v30h-63M199.5 117.5h80v-10c0-22.091-17.909-40-40-40s-40 17.909-40 40v10zM410.5 397.5h-130c-8.284 0-15-6.716-15-15 0-8.284 6.716-15 15-15h130c8.284 0 15 6.716 15 15 0 8.284-6.716 15-15 15zM290.5 477.5v-10c0-11.046 8.954-20 20-20h70c11.046 0 20 8.954 20 20v10M345.5 397.5v80M280.5 367.5v-85c0-35.898 29.101-65 65-65 35.898 0 65 29.101 65 65v85M458.5 307.5v170M239.5 67.5v-60" style="stroke-width:15;stroke-miterlimit:10;" fill="none" stroke="#000000" stroke-width="15" stroke-miterlimit="10" data-original="#000000" class=""></path><circle cx="414.5" cy="102.5" r="55" style="stroke-width:15;stroke-miterlimit:10;" fill="none" stroke="#000000" stroke-width="15" stroke-miterlimit="10" data-original="#000000" class=""></circle><path d="M412.5 70.618V106.5h21.824" style="stroke-width:15;stroke-miterlimit:10;" fill="none" stroke="#000000" stroke-width="15" stroke-miterlimit="10" data-original="#000000" class=""></path><path d="M194.5 223.5h40v54h-40z" style="stroke-width:15;stroke-miterlimit:10;" transform="rotate(-180 214.5 250.5)" fill="none" stroke="#000000" stroke-width="15" stroke-miterlimit="10" data-original="#000000" class=""></path><path d="M323 292.5h15M353 292.5h15" style="stroke-width:15;stroke-miterlimit:10;" fill="none" stroke="#000000" stroke-width="15" stroke-miterlimit="10" data-original="#000000" class=""></path></g></svg>